<?xml version="1.0" encoding="utf-8"?>
<!-- Generator: Adobe Illustrator 20.0.0, SVG Export Plug-In . SVG Version: 6.00 Build 0)  -->
<svg version="1.1" id="pttrn-radial-6" xmlns="http://www.w3.org/2000/svg" xmlns:xlink="http://www.w3.org/1999/xlink" x="0px"
	 y="0px" viewBox="0 0 1671.7 271.8" style="enable-background:new 0 0 1671.7 271.8;" xml:space="preserve">
<style type="text/css">
	.st0{fill:#00A3C9;}
	.st1{fill:#090909;}
	.st2{fill:#FBD421;}
</style>
<title>SA-logo-black</title>
<path class="st0" d="M271.1,136.2c0,74.9-60.8,135.9-135.9,135.6C60.3,271.5-1.5,211.2,0,133C1.5,58.7,61.3-0.9,137.4,0
	C212.7,0.9,271.3,62.1,271.1,136.2z M75.4,176.3L75.4,176.3L40.9,230l0.9,0.8l55.9-36.6c-1.4,12.1-5.6,21.5-13.4,30.1
	c-8.4,9.4-9.4,21.8-2.4,31.5c2.5,3.5,5.6,6.3,10.4,6.7c-5-14.2-3.3-21.3,7.9-28.7c10.2-6.6,19-13.9,21.4-28l13.3,63.4l1.4-0.3
	l13.7-65.5c7.5,10.3,11.4,20.6,11.9,32.3c0.5,10.6,7.4,19.7,17.5,22.3c5.1,1.3,10.4,1.7,15.3-2c-15-5.2-18-15.2-14.7-28.5
	c2.7-11,2.1-21.4-3.8-31.2l0.1-0.1l53.2,34.6l0.8-0.8l-36.7-56.3c11,0.8,21.3,5.6,31.1,14.3c7.8,6.9,18.1,8.3,27.3,3.6
	c5.1-2.6,8.9-6.3,10.2-12.6c-11.9,4.3-16.7,4-23-1c-3.3-2.6-6-5.8-8-9.5c-5.5-9.8-13.5-16.2-25.3-18.8l62.5-13.2l-0.1-1.4
	l-65.2-13.7c9-7.3,20.2-11.5,31.8-11.9c10.3-0.4,19.8-7.4,22.5-17.4c1.5-5.2,1.6-10.3-1.6-15.1c-0.6,0.4-1,0.5-1.1,0.7
	c-3.2,12.3-14.4,16.7-26.4,13.5c-11.1-2.9-21.7-2.5-31.8,3.2l-0.2-0.1c0.8-1.4,1.5-3,2.4-4.3c9.9-15.2,19.9-30.3,29.8-45.5
	c0.6-1,2.2-1.8,1-3.7l-56.5,37c1.8-12.3,6.3-22.5,14.2-31.1c7.4-8,8.6-20.6,2.7-29.5c-2.6-3.9-5.8-7.4-11.8-8.2
	c2.7,5.6,4.8,10.5,2.9,16.1c-2.4,7.3-7.9,11.7-14.1,15.5c-9.3,5.7-15.6,13.4-17.5,25.6L136.3,2.5l-1.4-0.1l-13.7,65.7
	c-7.9-9.9-11.4-20.8-12.2-32.7c-0.9-14-12.5-23.9-26.4-22.3c-2.2,0.3-4.6,0.5-6.3,2.9c8.1,2.1,13.6,6.6,15.4,14.8
	c0.9,4.8,0.6,9.7-0.8,14.3c-3.1,11-1.8,21.3,5.1,31.3C86.1,70,76.8,63.8,67.5,57.8C59.3,52.5,51,47.3,42.8,42
	c-0.3-0.5-0.6-1.2-1.3-0.6s0,1,0.4,1.3c2.2,5.2,5.8,9.6,8.9,14.4c8.7,13.5,17.6,27,26.6,40.7c-0.6,0.1-1.2,0.2-1.8,0.2
	c-0.8-0.1-1.6-0.2-2.5-0.4c-10-2.1-19.2-6.9-26.7-13.7c-8.4-7.6-19.4-8.6-29-2.7C13.2,83.6,10,87,9,91.9c1,0.8,1.5,0.3,2.1,0
	c10.2-4.3,17.8-2.5,24.9,6c1.8,2.4,3.5,4.9,5,7.4c2.6,4.2,6.1,8,10.1,10.9c4.3,3,9.2,5,14.4,5.7L2.4,135.2l0.1,1.4l65.2,13.7
	c-8.2,7-20.5,11.7-30.9,11.9c-11.3,0.2-20.6,7.4-23.2,18.2c-1.1,4.8-1.4,9.9,2.3,15.2c2.3-8.9,7.1-14.2,15.3-15.8
	c4.6-0.8,9.4-0.5,13.8,0.9C55.8,183.9,66,182.6,75.4,176.3z"/>
<path class="st1" d="M196.6,94.5l-0.8,1.1c-0.6-0.8,0.1-0.9,0.6-1.2L196.6,94.5z"/>
<path class="st1" d="M75.4,176.3l0.2-0.2L75.4,176.3L75.4,176.3z"/>
<path class="st1" d="M176.3,196.5l-0.4-0.5l0.5,0.4L176.3,196.5z"/>
<g id="nrSiBK.tif">
	<path d="M1375.1,180.7c1.1-1,2.2-2.8,3.4-3c4.5-0.6,6.6-3,6.6-7.3c0.1-14.7,0.1-29.3,0.1-44c0-3.1-1.6-5.1-4.9-5.1
		c-7.6-0.1-15.3,0-23.6,0c0,3.8,0,7.3,0,10.7c0,12.2,0.1,24.3,0,36.5c0,5.2,1.4,8.8,7.3,9.2c1,0.1,1.9,1.7,2.8,2.6
		c-1.1,0.6-2.3,1.7-3.4,1.8c-8.5,0.2-17,0.2-25.5,0c-1.1,0-2.2-1.3-3.2-2c1-0.8,1.9-2.2,3-2.4c3.7-0.6,6.4-2.1,6.5-6.3
		c0.1-16.5,0-32.9,0-49.8h-27.6c-0.1,0.2-0.5,0.4-0.5,0.7c0,16.1,0,32.3,0,48.4c0,4.2,2.3,6.2,6.4,6.9c1.3,0.2,2.4,1.9,3.7,2.9
		c-1.4,0.5-2.8,1.5-4.1,1.5c-8.3,0.1-16.7,0.1-25,0c-1.2,0-2.3-1.1-3.5-1.6c1.1-1,2-2.6,3.2-2.8c3.4-0.6,6.5-1.8,6.5-5.6
		c0.2-16.8,0.1-33.5,0.1-50.9h-10.8c1.4-6.6,6.4-5.9,10.9-6.3c-0.2-18.6,9.1-30.7,25.7-37.2c9.5-3.7,18.3-1.8,25.6,5.1
		c5.3-2.9,10.3-6.2,15.8-8.4c8.3-3.3,16.1-1.6,22.6,4.6c3.5,3.3,3.2,6.7-0.4,9.8c-2.4,2.2-4.6,2.2-6.9-0.3c-1.6-1.9-3.4-3.6-5.4-5.1
		c-8.2-5.9-17-3.5-20.8,5.8c-3.3,8.2-3.2,16.8-2.7,26.4l40.4-1.7c0,1.3,0,3,0,4.8c0,15.8,0,31.7,0,47.5c0,8.9,0.1,8.9,8.4,11.8
		c0.9,0.3,1.5,1.8,2.2,2.7c-0.9,0.6-1.7,1.6-2.6,1.6c-9.8,0.1-19.6,0.1-29.4,0.1L1375.1,180.7z M1343,114.9
		c1.8-7.5,3.5-14.5,5.2-21.6c0.2-0.6,0.1-1.3-0.1-1.9c-3.1-4.9-8.3-8.1-14-8.7c-5.3-0.7-10,0.9-13,5.6c-5.2,8.1-5.3,17.2-5.1,26.5
		H1343z"/>
	<path d="M455.2,113.4v11.2c1.7-1,2.9-1.7,4-2.5c3.6-2.3,7.1-5,11-6.9c9-4.4,18.1-1.7,23.6,6.6c0.7,1.1,1.4,2.2,2.1,3.4
		c4.8-3.1,9.3-6.2,14-9c12.5-7.3,26.5-1.3,28.4,13c1.4,10.1,0.8,20.6,1,30.9c0.1,2.7,0.1,5.3,0,8c-0.2,5.3,1.1,9.2,7.3,9.7
		c0.9,0.1,1.7,1.5,2.5,2.4c-0.9,0.7-1.8,1.9-2.7,1.9c-9.8,0.1-19.6,0.1-29.4,0.1l-1-1.5c1.2-1,2.3-2.9,3.6-3c5.6-0.5,7.4-4,7.4-8.8
		c0.1-10.3,0.3-20.7-0.1-31c-0.2-6.3-1.7-12.4-8.9-14.8c-5.7-1.9-16.2,1.4-20,6.4c-0.6,0.9-0.9,2.1-0.9,3.2c0,11.7,0.1,23.3,0,35
		c0,5.4,1,9.6,7.5,10.2c0.9,0.1,1.6,1.6,2.4,2.5c-1,0.6-1.9,1.8-2.9,1.8c-9,0.1-18,0.1-27,0c-1,0-2.1-1.3-3.1-2
		c0.9-0.8,1.6-2,2.6-2.3c7.5-2.1,8.1-2.5,8.2-10c0.1-10.8,0.3-21.7-0.5-32.4c-0.9-11.4-9.6-15.8-20.1-11c-6.1,2.8-10.1,6.3-9.4,14.3
		c1,10.2,0.3,20.6,0.4,31c0,4.3,1.3,7.5,6.2,8.2c0.9,0.1,1.6,1.6,2.4,2.5c-0.9,0.6-1.9,1.8-2.8,1.9c-9,0.1-18,0.1-27,0
		c-0.9,0-1.7-1-2.6-1.6c0.7-0.9,1.2-2.3,2.2-2.6c9.4-3.2,9.4-3.2,9.4-13.2c0-10.7,0-21.3,0-32c0-4.9-1.1-8.9-7-9.7
		c-0.9-0.1-1.6-1.5-2.5-2.4c0.8-0.7,1.4-1.9,2.3-2.1C442.2,116.8,448.4,115.2,455.2,113.4z"/>
	<path d="M670.1,73.3v50.1c3.8-2.6,6.9-5.1,10.3-6.9c15.1-8.2,30.2-1,32,16.1c1.2,11.7,0.7,23.6,0.8,35.4c0.1,7.5,0.4,7.7,7.5,9.9
		c1.2,0.4,2,1.9,3.1,2.9l-0.9,1.4c-10,0-19.9,0-29.9-0.1c-0.8,0-1.6-1.1-2.5-1.7c0.8-0.9,1.4-2.2,2.3-2.6c7.7-2.7,7.7-2.7,7.7-10.8
		c0-9.3,0.1-18.7,0-28c-0.1-6.4-1.3-12.6-8-15.5s-13-1.2-18.8,3c-2.5,1.6-4,4.5-3.8,7.5c0.2,11.3,0.1,22.6,0,34c0,5.2,1,9.3,7.3,9.8
		c0.9,0.1,1.8,1.8,2.6,2.8c-1,0.6-2.1,1.6-3.1,1.6c-8.8,0.1-17.7,0.1-26.5,0c-1,0-2-1.1-3-1.6c0.9-0.9,1.6-2.4,2.7-2.7
		c6.9-2,7.6-2.7,7.6-10c0-25.7,0-51.3,0-77c0-6.4-0.8-7.2-7.2-8.6c-1.1-0.2-2.1-1.4-3.1-2.2c0.8-0.7,1.4-1.9,2.3-2.1
		C656.3,76.3,663,74.9,670.1,73.3z"/>
	<path d="M1217.6,182.2c-10.1,0-20.4,0-30.7-0.1c-1-0.3-1.7-1.1-1.9-2.1c0-0.8,1-2.4,1.7-2.4c9.2-0.7,12.1-7.7,14.9-14.8
		c10.1-25.7,20.2-51.4,30.3-77.1c1.2-3,2.4-5.5,6.8-5c2.2,6.2,4.5,12.6,6.8,18.9c7.5,20.8,15,41.7,22.4,62.5
		c2.7,7.4,5,15.2,15.1,15.7c0.7,0,1.3,2.3,2.4,4.2h-37.6c-1.2-2.6-0.9-4,2.4-4.7c7.3-1.4,7.7-2.4,5.3-9.4
		c-2.1-6.1-4.2-12.3-6.7-18.3c-0.9-1.7-2.5-2.9-4.4-3.2c-8.5-0.3-17,0-25.5-0.2c-2.9-0.1-4.1,1.2-4.9,3.7c-1.9,6-4,12-5.9,18
		c-2,6.4-0.7,8.5,6.1,9.4C1216.9,177.7,1219.1,177.9,1217.6,182.2z M1245.3,138.9l-13.3-38.7l-14.2,38.7H1245.3z"/>
	<path d="M364.1,153.5c3,5.9,5.1,10.8,8,15.2c3.9,6,9.5,9.6,17,10c8.4,0.4,14.6-3,17.6-9.7c3.3-7.3,2.3-15.8-3.7-21.2
		c-4.4-4-9.7-6.9-14.7-10.2c-4.2-2.7-8.8-4.9-12.8-7.8c-10.5-7.7-14.3-18.2-11.2-29.7c2.9-10.6,12.9-19,25.1-19.6
		c7.2-0.3,14.5,1.2,21.7,2.1c1.5,0.4,2.7,1.5,3.2,2.9c1,6.2,1.6,12.5,2.4,18.8c-3.1,1.9-4.6,1.3-5.7-2c-0.9-3-2.2-5.9-3.8-8.6
		c-5.4-8.8-17.7-11-25.7-4.8c-7.4,5.8-8.5,18.4-1.5,25.4c3.8,3.8,8.7,6.7,13.3,9.6c5,3.2,10.5,5.7,15.5,9.1
		c9.1,6.2,13.8,14.9,12.2,26.1s-8.3,18.8-18.7,22.7c-11.8,4.5-23.6,3.4-35-1.6c-1.6-0.8-2.7-2.2-3.2-3.9c-1.3-6.2-2.4-12.4-3.1-18.7
		C360.9,156.5,362.9,155,364.1,153.5z"/>
	<path d="M902.7,182h-34l-0.9-1.2c1.1-1,2.1-2.7,3.4-3c7.5-2,8.2-2.5,8.2-10c0.1-12,0-24,0-36c0-4.6-1.6-7.7-6.5-8.6
		c-1.1-0.4-2-1.2-2.4-2.3c-0.2-0.5,1.1-2,1.9-2.2c6.2-1.8,12.4-3.4,19.1-5.2v11.2c3.7-2.5,6.7-4.6,9.7-6.6
		c16.2-10.7,31.5-3.4,32.9,15.9c0.8,11.4,0.3,23,0.2,34.5c0,5.1,1,8.9,7.1,9.3c0.9,0.1,1.7,1.5,2.5,2.4c-0.9,0.7-1.8,1.9-2.7,1.9
		c-8.8,0.1-17.7,0.1-26.5,0c-1,0-2-1.1-2.9-1.8c0.8-0.9,1.4-2.2,2.4-2.5c7.3-2.6,7.7-2.9,7.7-10.4c0.1-9.5,0.1-19,0-28.5
		c-0.1-6.6-1.2-12.8-8.4-15.6c-6.1-2.3-16.9,1-20.9,6.3c-0.7,1.1-1,2.4-1,3.7c-0.1,11.5,0,23,0,34.5c0,5.3,1,9.6,7.7,10.1
		C900.1,178,901,179.9,902.7,182z"/>
	<path d="M1087.6,113.4v11.3c3.9-2.6,7-4.7,10.1-6.8c7-4.7,14.3-6.4,22.1-2.4s10.2,11.2,10.4,19.2c0.3,11.2,0.2,22.3,0.1,33.5
		c0,5.2,0.7,9.4,7.1,9.8c0.8,0.1,1.5,1.7,2.2,2.6c-1,0.6-2,1.7-3,1.7c-8.5,0.1-17,0.1-25.5,0c-1.1,0-2.2-1.2-3.3-1.9
		c1-0.9,1.9-2.4,2.9-2.5c4.6-0.6,6.9-3.2,6.9-7.6c0-11.6,0.4-23.3-0.4-34.9c-0.7-10.4-8.6-14.9-18.6-11.8
		c-8.9,2.8-11.2,6.1-11.2,15.3c0,10,0,20,0,30c0,4.8,1.2,8.5,7,9c1.2,0.1,2.2,1.9,3.3,3l-0.9,1.2h-32.3l-0.9-1.2c1.1-1,2-2.7,3.3-3
		c7.8-2.1,8-2,8.2-9.9c0.2-12.2-0.1-24.3,0-36.5c0-4.2-1.5-7-5.8-8c-1.2-0.3-2.1-1.6-3.1-2.4c1-0.9,1.9-2.1,3.1-2.5
		C1075.3,116.7,1081.2,115.2,1087.6,113.4z"/>
	<path d="M858.3,147.8c0,22.3-16.8,38.5-37.3,36.1c-25.8-3.1-38.4-33.3-23.2-55.7c8.1-12.2,23.2-17.7,37.3-13.5
		C849,118.9,858.3,132.1,858.3,147.8z M844.6,151.4c-0.8-11.3-2.8-19.1-7.3-25.4c-7.3-10.3-20.5-10.1-26.6,0.9
		c-2.6,5-4.1,10.5-4.5,16.1c-0.7,11,0.9,21.8,8.7,30.3c8.4,9.1,21.5,7,25.9-4.6C842.9,163.3,843.3,157.2,844.6,151.4L844.6,151.4z"
		/>
	<path d="M1561.2,172.6c3.3,4,2.1,3.4-9.1,10.2c-4.7,2.9-8.8,0.3-13.4-8c-3.2,2.1-6.3,4.2-9.5,6.2c-7,4.2-13.2,4-19-0.5
		c-6-4.6-8.7-12.2-7-19.5c1.4-5.6,5.6-8.5,10.5-10.5c7-2.8,13.9-5.5,20.9-8.1c3.4-1.3,4.6-3.6,3.9-7c-0.4-2.8-1.1-5.5-2-8.2
		c-1.6-4.4-5.9-7.2-10.5-7c-5.1,0-7.7,3.3-9.6,7.5c-0.7,1.5-0.7,3.4-1.7,4.7c-1.2,1.7-3.3,4.2-4.6,4c-2.5-0.5-4.7-2-6.1-4.1
		c-0.8-1.4,0.1-5.2,1.4-5.9c8-4.6,15.9-9.8,24.6-12.6c8.4-2.8,17.5,3.8,19.4,13c1.2,5.8,1,11.9,1.1,17.9c0.2,6.7-0.1,13.3,0.1,20
		C1550.9,172.8,1553.3,174.6,1561.2,172.6z M1538.7,145.5c-6.6,3.2-12.3,5.6-17.5,8.7c-5.9,3.5-7,11.1-2.6,16.4
		c2.9,3.6,6.8,5,11.1,3.5c3.6-1.3,8.5-1.7,8.9-6.7C1539,160.5,1538.6,153.5,1538.7,145.5L1538.7,145.5z"/>
	<path d="M1057,172.5c1.6,4.1-0.7,6.6-9.9,10.8c-4.3,2-8.4-0.7-12.7-8.4c-3.2,2-6.3,4-9.4,6.1c-5.9,4-11.9,4.2-17.8,0.4
		c-6.7-4.2-9.4-10.6-8.7-18.4c0.7-6.9,5.3-10.4,11.3-12.6c6.8-2.6,13.6-5.3,20.5-7.9c3.6-1.3,4.9-3.7,4-7.3c-0.4-1.8-0.5-3.6-1-5.4
		c-1.7-5.8-5.8-9.2-10.9-9.5s-8.4,2.5-10.7,8.7c-0.3,0.9-0.4,2.1-1,2.8c-1.4,1.8-3.3,4.8-4.6,4.6c-2.6-0.5-4.9-2.1-6.4-4.4
		c-0.7-1.4,0.6-5.3,2.1-6.2c7.5-4.4,15.1-9.2,23.3-12c9-3.1,19.2,4.2,20.3,14.2c1.1,9.7,0.8,19.6,1,29.4c0.1,2.3,0,4.7,0,7
		C1046.5,172.9,1048.8,174.7,1057,172.5z M1034.4,145.4c-6.8,3.4-12.9,5.9-18.4,9.4s-6.1,10.6-2,15.7c3,3.9,7.5,5,12.5,3.2
		c6.7-2.3,7.9-3.8,7.9-10C1034.4,158,1034.4,152.4,1034.4,145.4L1034.4,145.4z"/>
	<path d="M1628.2,144.5c0.5,11.3,3,20.9,13.1,26.5c9.9,5.4,18.7,1.9,26.5-4.8c3,1.6,3,3.3,0.9,5.6c-8.8,9.2-18.7,15.1-32,11.1
		c-11.5-3.4-19.2-13.9-20.6-27.5c-1.7-17.4,7.4-33.8,22.3-40c14.5-6.1,30,2.2,32.9,17.6c1.3,6.7,0,8.5-6.7,9.2
		c-6,0.6-12,0.9-17.9,1.3S1634.7,144.1,1628.2,144.5z M1628.1,137.3c9.9,0,18.2,0.2,26.4-0.2c1.2,0,3.3-2.2,3.4-3.6
		c0.6-5.3-3.5-11.4-8.5-13.4c-5.3-2.2-11.4-0.4-14.6,4.3C1632.3,128,1630.6,132.4,1628.1,137.3z"/>
	<path d="M1438.6,73.4c0,1.9,0,3.7,0,5.4c0,29,0,58,0,86.9c0,9.1,0.1,9.1,8.8,12.1c1.1,0.4,1.8,1.9,2.6,2.9l-0.7,1.4
		c-8.6,0-17.2,0.1-25.7-0.1c-2.7-0.1-7.6-0.7-7.7-1.6c-0.5-4.5,4.2-2,6.1-3.6c1.6-1.3,3-2.9,3.9-4.7c0.7-1.7,0.6-3.9,0.6-5.9
		c0-24.3,0-48.7,0-73c0-8.6-0.2-8.6-8.5-11.1c-0.8-0.2-2-1.5-1.9-2.2c0.3-1,1.1-1.8,2.1-2.1C1424.7,76.4,1431.3,75,1438.6,73.4z"/>
	<path d="M759.2,112.8c12.8,0.5,16.8,4.6,16.2,17.4c-0.3,1.1-1,2.1-2,2.7c-0.4,0.2-1.9-0.8-2.4-1.6c-2.3-3.2-3.9-7.1-6.7-9.8
		c-4.9-4.8-12.3-4.3-15.9,0.5c-3.8,5.1-2.7,11.6,3.1,15.6c2.7,1.9,5.9,3.1,8.8,4.7c3.5,1.9,7.2,3.5,10.4,5.8
		c10.5,7.8,10.4,22.3,0,30.3c-8.7,6.7-23.9,7.6-33.1,1.7c-1.4-0.9-2.3-2.2-2.8-3.8c-0.8-4.2-1.3-8.5-1.5-12.9
		c-0.1-1.1,1.2-2.2,1.9-3.4c1.1,0.7,2.1,1.6,2.9,2.6c2.1,3.4,3.5,7.3,6.2,10.1c2.6,2.6,5.7,4.4,9.2,5.4c4.7,1.3,9.7-0.9,11.8-5.2
		c2.3-4.3,1.5-9.5-2-12.9c-2.7-2.2-5.6-4.2-8.6-5.8c-3.4-2-7.2-3.6-10.4-5.8c-6.1-4.1-9.6-9.8-8.7-17.3c0.9-8,5.5-13.5,13-16.2
		C752,113.9,755.7,113.6,759.2,112.8z"/>
	<path d="M1576.4,121.1h-10.9c1.3-6.2,5.8-6,9.8-6c1.1-4.6,1.4-9.3,3.4-13.1c1.8-3.4,5.4-5.8,8.3-8.7l1.4,0.7v21.1
		c5.2,0,9.6-0.2,14,0.1c1.4,0.1,2.8,1.7,4.2,2.6c-1.5,1.1-2.9,3.1-4.4,3.2c-4.2,0.5-8.6,0.2-13.5,0.2c0,6.8,0,13,0,19.3
		c0,7.5-0.3,15,0.2,22.5c0.7,11.1,5.6,14.1,15.9,10.4c0.6-0.2,1.2-0.4,1.8-0.6c2.2,2.4,1.9,4.1-1,5.4s-5.9,3.1-8.9,4.5
		c-8.5,3.7-16.8-0.2-19.2-9.1c-0.7-3.1-1.1-6.2-1-9.4c-0.1-12.5,0-25,0-37.5C1576.4,125.2,1576.4,123.6,1576.4,121.1z"/>
	<path d="M621.2,92.8v22.4c5.1,0,9.7-0.2,14.3,0.1c1.3,0.1,2.6,1.6,3.9,2.5c-1.3,1.2-2.5,3.2-3.9,3.4c-4.4,0.4-8.9,0.2-14.2,0.2
		c0,2.8,0,5.2,0,7.6c0,10.2,0,20.3,0,30.5c0,2.5,0.2,5,0.7,7.4c1.6,7.2,5.3,9.4,12.3,7.6c1.6-0.4,3.1-1,4.8-1.6c2,2.2,2.2,4-0.9,5.4
		c-2.1,1-4.2,2.1-6.2,3.2c-12.3,6.5-22.7,0.4-22.8-13.6c-0.2-13.5,0-27,0-40.5c0-1.8,0-3.6,0-6h-10.8c1.4-5.2,1.4-5.2,11-6.8
		C606.7,104.5,612.5,98.8,621.2,92.8z"/>
	<path d="M977,113.4c0,16.6,0,32.9,0,49.2c0,2,0,4,0,6c0,5.1,1.6,8.7,7.5,9.2c1.3,0.1,2.4,1.7,3.7,2.6l-0.8,1.8
		c-8.6,0-17.1,0.1-25.7-0.1c-2.5-0.1-7.1-0.8-7.2-1.6c-0.6-4.2,4-1.9,5.6-3.5s4.1-3.9,4.2-6c0.4-13.8,0.2-27.6,0.2-41.4
		c0-3.9-2.6-5.3-6-6.2c-1.2-0.3-2.2-1.8-3.3-2.7c1.1-0.8,2.1-1.9,3.3-2.2C964.4,116.7,970.3,115.2,977,113.4z"/>
	<path d="M558.9,180.7c1.3-1,2.4-2.8,3.8-2.9c5.6-0.6,7.2-3.9,7.2-8.9c-0.1-12.5-0.1-25,0-37.5c0-4.6-1.8-7.2-6.3-8
		c-1.1-0.2-2-1.6-3-2.4c1-0.8,1.9-2.1,3-2.5c6-1.8,12.1-3.2,18.8-5c0,5.8,0,11.4,0,17c0,12.2,0,24.3,0,36.5c0,8.2,0.4,8.6,8.2,11
		c1,0.3,1.7,1.6,2.5,2.4c-0.9,0.7-1.8,1.9-2.8,1.9c-10.1,0.1-20.3,0.1-30.4,0.1L558.9,180.7z"/>
	<path d="M1457.9,180.7c1.2-1,2.3-2.8,3.6-2.9c5.5-0.5,7.6-3.6,7.6-8.6c0.1-12.6,0.1-25.3,0.1-37.9c0-4.4-2-7.2-6.6-8
		c-1.2-0.2-2.1-1.5-3.1-2.3c1-0.9,1.8-2.2,3-2.5c6-1.7,12.1-3.2,18.8-5c0,1.9,0,3.6,0,5.4c0.1,16.6,0.2,33.3,0.1,49.9
		c0,5.3,2,8.5,7.7,9c1.3,0.1,2.5,1.7,3.7,2.6l-0.8,1.4h-33.1L1457.9,180.7z"/>
	<path d="M977.6,92.2c0.1,4.3-3.3,7.9-7.6,8c-0.1,0-0.1,0-0.2,0c-4.4-0.2-7.8-3.8-7.7-8.2c0-4.3,3.4-7.8,7.7-7.8c0,0,0.1,0,0.1,0
		C974.5,84.2,977.6,87.5,977.6,92.2z"/>
	<path d="M1482.2,92c0,4.3-3.5,7.8-7.8,7.9s-7.8-3.5-7.8-7.8s3.5-7.8,7.8-7.9S1482.1,87.7,1482.2,92L1482.2,92z"/>
	<path d="M575.4,84.2c4.5,0.1,7.6,3.5,7.5,8.1c0,4.3-3.6,7.9-7.9,7.8c-4.3-0.3-7.7-3.9-7.7-8.2C567.4,87.5,571,84.1,575.4,84.2z"/>
</g>
<g id="nrSiBK.tif-2">
	<path class="st2" d="M176.3,196.5c6,9.8,6.6,20.2,3.8,31.2c-3.3,13.3-0.3,23.4,14.7,28.5c-5,3.7-10.3,3.3-15.3,2
		c-10.2-2.6-17.1-11.6-17.5-22.3c-0.5-11.6-4.4-22-11.9-32.3l-13.7,65.6l-1.4,0.3L121.7,206c-2.4,14.1-11.2,21.3-21.4,28
		c-11.3,7.4-12.9,14.5-7.9,28.7c-4.9-0.4-7.9-3.2-10.4-6.7c-7-9.7-6-22.2,2.4-31.5c7.8-8.6,12-18.1,13.4-30.1l-55.8,36.6l-0.9-0.8
		l34.6-53.6l0.2-0.3l-0.2,0.2c-9.5,6.2-19.6,7.6-30.5,4.4c-4.5-1.4-9.2-1.7-13.8-0.9c-8.2,1.6-13,6.9-15.3,15.8
		c-3.8-5.3-3.5-10.4-2.3-15.2c2.6-10.9,11.9-18,23.2-18.2c10.4-0.2,22.7-4.9,30.9-11.9L2.5,136.6l-0.1-1.4l63.2-13.3
		c-5.2-0.7-10.1-2.6-14.4-5.7c-4.1-2.9-7.5-6.6-10.2-10.9c-1.5-2.6-3.2-5.1-5-7.4c-7.1-8.5-14.6-10.2-24.9-6c-0.6,0.2-1.1,0.8-2.1,0
		c1-4.9,4.1-8.3,8.3-10.8c9.6-5.8,20.6-4.9,29,2.7c7.5,6.9,16.8,11.6,26.7,13.7c0.8,0.2,1.6,0.3,2.5,0.4c0.6,0,1.2-0.1,1.8-0.2
		c-9-13.7-17.8-27.2-26.6-40.7c-3-4.7-6.7-9.1-8.9-14.4l0.9-0.7c8.2,5.3,16.5,10.5,24.7,15.8c9.3,6,18.6,12.2,28.4,18.7
		c-6.9-10.1-8.2-20.3-5.1-31.3c1.4-4.6,1.7-9.5,0.8-14.3C89.9,22.6,84.4,18,76.3,16c1.8-2.4,4.1-2.6,6.3-2.9
		c13.9-1.6,25.5,8.4,26.3,22.3c0.7,11.9,4.2,22.8,12.1,32.7l13.8-65.7l1.4,0.1l13.2,63.6c1.9-12.2,8.3-19.9,17.5-25.6
		c6.2-3.8,11.7-8.1,14.1-15.5c1.9-5.6-0.1-10.4-2.9-16.1c6,0.8,9.2,4.2,11.8,8.2c5.9,9,4.6,21.6-2.7,29.5
		c-7.9,8.6-12.5,18.7-14.2,31.1l56.5-37c1.2,2-0.4,2.8-1,3.7c-9.9,15.2-19.8,30.3-29.8,45.5c-0.9,1.4-1.6,2.9-2.4,4.3
		c-0.5,0.3-1.2,0.4-0.6,1.2l0.8-1.1c10.1-5.7,20.7-6.1,31.8-3.2c12.1,3.2,23.3-1.2,26.4-13.5c0.1-0.2,0.5-0.3,1.1-0.7
		c3.1,4.8,3,9.9,1.6,15.1c-2.8,9.9-12.2,16.9-22.5,17.4c-11.6,0.4-22.7,4.6-31.7,11.9l65.2,13.7l0.1,1.4L206,149.8
		c11.8,2.5,19.9,8.9,25.3,18.8c2,3.7,4.7,6.9,8,9.5c6.3,5.1,11.1,5.3,23,1c-1.3,6.3-5.2,10-10.2,12.6c-9.2,4.8-19.5,3.4-27.3-3.6
		c-9.8-8.7-20-13.4-31.1-14.3l36.7,56.3l-0.8,0.8l-53.2-34.6l-0.5-0.4L176.3,196.5z"/>
	<path class="st2" d="M41.9,42.7c-0.5-0.3-1.1-0.7-0.4-1.3s1,0.1,1.3,0.6L41.9,42.7z"/>
</g>
<text transform="matrix(1 0 0 1 368 379)"><tspan x="0" y="0" style="font-family:'MinionPro-Regular'; font-size:60px;">Smithsonian Institution</tspan><tspan x="0" y="72" style="font-family:'MinionPro-Regular'; font-size:60px;">Affiliations Program</tspan></text>
</svg>
